<svg width="192" height="25" viewBox="0 0 192 25" fill="none" xmlns="http://www.w3.org/2000/svg">
    <mask id="mask0_1_230" style="mask-type:luminance" maskUnits="userSpaceOnUse" x="0" y="0" width="192" height="25">
        <path d="M192 0H0V24.3582H192V0Z" fill="white"/>
    </mask>
    <g mask="url(#mask0_1_230)">
        <path d="M17.4268 1.26158C17.2736 1.18551 17.0962 1.29758 17.0962 1.46727V4.36122C17.0962 4.56815 17.3487 4.67179 17.4964 4.52545L19.2954 2.74272C19.3946 2.64443 19.3852 2.48225 19.2732 2.39847C18.6863 1.95917 18.0679 1.5802 17.4268 1.26158Z" fill="black"/>
        <path d="M14.1394 0.183104C14.25 0.202487 14.3295 0.298372 14.3295 0.409641V7.56762C14.3295 7.62921 14.3048 7.68829 14.2609 7.73187L11.9001 10.0712C11.7525 10.2175 11.5 10.1139 11.5 9.90696V0.233895C11.5 0.109586 11.5988 0.0070673 11.7242 0.00389862C12.532 -0.0165125 13.3414 0.0432226 14.1394 0.183104Z" fill="black"/>
        <path d="M8.66428 13.2771C8.70825 13.2335 8.73293 13.1744 8.73293 13.1128V0.761816C8.73293 0.607638 8.58412 0.496237 8.43561 0.542193C7.58511 0.80537 6.75826 1.16427 5.97228 1.61888C5.90111 1.66005 5.85791 1.73588 5.85791 1.81756V15.4973C5.85791 15.7042 6.11039 15.8078 6.25805 15.6615L8.66428 13.2771Z" fill="black"/>
        <path d="M2.69397 4.40236C2.82957 4.23743 3.09104 4.335 3.09104 4.54776L3.09106 18.7033C3.09106 18.7649 3.06635 18.824 3.0224 18.8676L2.76784 19.1198C2.66866 19.2182 2.50466 19.2083 2.42013 19.0973C-0.895544 14.7466 -0.804264 8.65749 2.69397 4.40236Z" fill="black"/>
        <path d="M14.0274 12.4011C13.8185 12.4011 13.7139 12.1509 13.8616 12.0045L16.2223 9.6652C16.2663 9.62164 16.3259 9.59717 16.3881 9.59717H23.6427C23.7545 9.59717 23.8511 9.67551 23.871 9.78463C24.0158 10.5751 24.0795 11.3772 24.0623 12.178C24.0598 12.3026 23.9561 12.4011 23.8302 12.4011H14.0274Z" fill="black"/>
        <path d="M19.4578 6.4585C19.3101 6.60484 19.4148 6.85503 19.6236 6.85503H22.5586C22.7303 6.85503 22.8434 6.67825 22.7656 6.52653C22.4399 5.89051 22.0527 5.27742 21.6044 4.69583C21.5196 4.58577 21.3565 4.5769 21.2578 4.67483L19.4578 6.4585Z" fill="black"/>
        <path d="M10.792 15.1426C10.7298 15.1426 10.6702 15.167 10.6262 15.2106L8.22 17.5951C8.07234 17.7414 8.17692 17.9915 8.38575 17.9915H22.2602C22.3431 17.9915 22.4199 17.9483 22.4612 17.8772C22.9151 17.0979 23.2725 16.2786 23.5338 15.4363C23.5794 15.2893 23.4669 15.1426 23.3119 15.1426H10.792Z" fill="black"/>
        <path d="M4.73987 21.4089C4.6288 21.3248 4.61939 21.1631 4.71822 21.0652L4.98425 20.8015C5.02822 20.7579 5.08784 20.7334 5.15001 20.7334H19.5368C19.7507 20.7334 19.8497 20.9912 19.6846 21.1262C15.3708 24.6568 9.15525 24.7511 4.73987 21.4089Z" fill="black"/>
        <path d="M55.0057 14.7268C54.7974 16.6264 54.1203 18.309 52.9742 19.775C51.8491 21.2202 50.3698 22.3455 48.5363 23.1508C46.7027 23.956 44.6088 24.3586 42.2544 24.3586C39.6291 24.3586 37.3267 23.8528 35.3474 22.8411C33.368 21.8294 31.8261 20.4253 30.7218 18.629C29.6176 16.8122 29.0654 14.7062 29.0654 12.3112C29.0654 9.91611 29.6176 7.82045 30.7218 6.02416C31.8261 4.20723 33.368 2.79293 35.3474 1.78122C37.3267 0.769522 39.6291 0.263672 42.2544 0.263672C44.6088 0.263672 46.7027 0.666286 48.5363 1.47152C50.3698 2.27674 51.8491 3.40201 52.9742 4.8473C54.1203 6.29258 54.7974 7.9753 55.0057 9.89546H50.8491C50.6198 8.65665 50.1198 7.59333 49.349 6.70551C48.5989 5.81769 47.6195 5.13635 46.411 4.66147C45.2026 4.16593 43.8065 3.91818 42.223 3.91818C40.3896 3.91818 38.7957 4.25885 37.4413 4.94021C36.1078 5.62155 35.0765 6.59195 34.3472 7.85141C33.6179 9.11087 33.2533 10.5975 33.2533 12.3112C33.2533 14.0248 33.6179 15.5114 34.3472 16.7708C35.0765 18.0303 36.1078 19.0008 37.4413 19.6822C38.7957 20.3634 40.3896 20.7041 42.223 20.7041C43.8065 20.7041 45.2026 20.4667 46.411 19.9918C47.6195 19.5169 48.5989 18.8355 49.349 17.9478C50.1198 17.0392 50.6198 15.9657 50.8491 14.7268H55.0057Z" fill="black"/>
        <path d="M60.8487 18.5977V15.2219H77.2255V18.5977H60.8487ZM71.7249 0.696777L82.9761 23.9246H78.5694L68.3495 2.24529H69.9435L59.7236 23.9246H55.3169L66.5681 0.696777H71.7249Z" fill="black"/>
        <path d="M107.554 21.4469L105.866 21.6327V0.696777H109.867V23.9246H104.616L88.177 2.98859L89.8333 2.80276V23.9246H85.833V0.696777H91.2085L107.554 21.4469Z" fill="black"/>
        <path d="M127.291 24.3586C124.624 24.3586 122.28 23.8528 120.259 22.8411C118.238 21.8294 116.665 20.4253 115.54 18.629C114.415 16.8122 113.852 14.7062 113.852 12.3112C113.852 9.91611 114.415 7.82045 115.54 6.02416C116.665 4.20723 118.238 2.79293 120.259 1.78122C122.28 0.769522 124.624 0.263672 127.291 0.263672C129.958 0.263672 132.302 0.769522 134.323 1.78122C136.344 2.79293 137.917 4.20723 139.042 6.02416C140.168 7.82045 140.73 9.91611 140.73 12.3112C140.73 14.7062 140.168 16.8122 139.042 18.629C137.917 20.4253 136.344 21.8294 134.323 22.8411C132.302 23.8528 129.958 24.3586 127.291 24.3586ZM127.291 20.7041C129.187 20.7041 130.823 20.3634 132.198 19.6822C133.573 19.0008 134.636 18.0303 135.386 16.7708C136.157 15.5114 136.542 14.0248 136.542 12.3112C136.542 10.5975 136.157 9.11087 135.386 7.85141C134.636 6.59195 133.573 5.62155 132.198 4.94021C130.823 4.25884 129.187 3.91818 127.291 3.91818C125.416 3.91818 123.78 4.25884 122.384 4.94021C121.009 5.62155 119.936 6.59195 119.165 7.85141C118.415 9.11087 118.04 10.5975 118.04 12.3112C118.04 14.0248 118.415 15.5114 119.165 16.7708C119.936 18.0303 121.009 19.0008 122.384 19.6822C123.78 20.3634 125.416 20.7041 127.291 20.7041Z" fill="black"/>
        <path d="M157.146 0.696777C158.896 0.696777 160.406 1.00648 161.677 1.6259C162.97 2.24529 163.958 3.11246 164.646 4.2274C165.355 5.32169 165.709 6.59147 165.709 8.03675C165.709 9.48204 165.355 10.7621 164.646 11.8771C163.958 12.9714 162.97 13.8282 161.677 14.4476C160.406 15.067 158.896 15.3767 157.146 15.3767H146.613V11.8461H156.99C158.406 11.8461 159.511 11.5054 160.302 10.8241C161.115 10.1428 161.522 9.21364 161.522 8.03675C161.522 6.85989 161.115 5.93077 160.302 5.24943C159.511 4.56808 158.406 4.2274 156.99 4.2274H147.02L148.864 2.18336V23.9246H144.738V0.696777H157.146Z" fill="black"/>
        <path d="M176.841 23.9246V12.8372H180.968V23.9246H176.841ZM165.777 0.696777H170.435L179.998 12.5894H177.779L187.344 0.696777H192L180.217 15.3458L177.592 15.3767L165.777 0.696777Z" fill="black"/>
    </g>
</svg>
