<svg width="11" height="10" viewBox="0 0 11 10" fill="none" xmlns="http://www.w3.org/2000/svg">
  <path
    d="M9.542 1.885L9.54958 1.87579L7.38292 0.120792L6.70042 0.962542L7.82004 1.86929C7.54258 2.03785 7.32219 2.28591 7.18745 2.58127C7.05271 2.87664 7.00984 3.20568 7.06442 3.52571C7.14513 4.01267 7.47933 4.43354 7.91213 4.66971C8.398 4.93513 8.82483 4.91129 9.20346 4.77642L9.19533 8.125C9.19599 8.21469 9.17427 8.30313 9.13214 8.38232C9.09001 8.4615 9.02881 8.52894 8.95406 8.57852C8.87932 8.6281 8.79339 8.65826 8.70405 8.66627C8.61472 8.67429 8.52479 8.6599 8.44242 8.62442C8.37793 8.59676 8.31943 8.55684 8.27017 8.50688C8.16924 8.40541 8.11257 8.26812 8.11254 8.125L8.125 7.04167C8.12555 6.82846 8.08385 6.61725 8.00231 6.42024C7.92078 6.22324 7.80102 6.04434 7.64996 5.89388C7.49906 5.74264 7.31982 5.62265 7.1225 5.54077C6.92517 5.45888 6.71364 5.41671 6.5 5.41667H5.95833V1.08333C5.95833 0.485875 5.47246 0 4.875 0H1.08333C0.485875 0 0 0.485875 0 1.08333V8.66667C0 9.26413 0.485875 9.75 1.08333 9.75H4.875C5.47246 9.75 5.95833 9.26413 5.95833 8.66667V6.5H6.5C6.57403 6.5 6.64463 6.51408 6.71179 6.54225C6.84064 6.59877 6.94338 6.7019 6.99942 6.83096C7.02743 6.89767 7.0418 6.96931 7.04167 7.04167L7.02867 8.125C7.02867 8.34492 7.07146 8.55779 7.1565 8.75767C7.23829 8.95212 7.35583 9.126 7.50371 9.27279C7.65407 9.42475 7.8332 9.54522 8.03065 9.62715C8.2281 9.70909 8.4399 9.75085 8.65367 9.75C8.87431 9.75 9.08519 9.70739 9.28633 9.62217C9.48025 9.54092 9.65467 9.42338 9.80146 9.27496C9.95317 9.12442 10.0735 8.94525 10.1554 8.74784C10.2373 8.55044 10.2792 8.33873 10.2787 8.125L10.2917 3.25C10.291 2.97791 10.222 2.71034 10.091 2.47185C9.96002 2.23335 9.77125 2.03157 9.542 1.885ZM1.08333 1.08333H4.875L4.87554 3.25H1.08333V1.08333ZM1.08333 8.66667V4.33333H4.87554L4.87608 8.66667H1.08333ZM8.66667 3.79167C8.52301 3.79167 8.38523 3.7346 8.28365 3.63302C8.18207 3.53143 8.125 3.39366 8.125 3.25C8.125 3.10634 8.18207 2.96857 8.28365 2.86698C8.38523 2.7654 8.52301 2.70833 8.66667 2.70833C8.81033 2.70833 8.9481 2.7654 9.04968 2.86698C9.15127 2.96857 9.20833 3.10634 9.20833 3.25C9.20833 3.39366 9.15127 3.53143 9.04968 3.63302C8.9481 3.7346 8.81033 3.79167 8.66667 3.79167Z"
    fill="white"
    fill-opacity="0.48"
  />
</svg>


